{"glyphs":{"0":{"ha":631,"x_min":4,"x_max":632,"o":"m 194 815 q 263 844 244 840 q 335 844 282 849 q 444 822 408 842 q 581 660 531 779 q 614 424 631 542 q 553 247 600 333 q 457 135 507 161 q 365 107 432 122 q 301 98 324 99 q 246 104 278 97 q 70 240 135 128 q 15 501 6 353 q 42 640 21 581 q 100 743 63 700 q 194 815 138 786 m 363 628 q 322 655 336 653 q 275 640 308 657 q 210 535 228 617 q 221 386 192 454 q 264 322 238 349 q 313 294 290 294 q 364 325 331 294 q 408 382 397 356 q 416 511 431 433 q 363 628 401 589 z "},"1":{"ha":553,"x_min":11,"x_max":542,"o":"m 207 839 q 275 847 235 850 q 339 829 315 844 q 378 788 367 813 q 395 708 389 763 q 406 525 401 654 q 410 403 408 442 q 415 338 411 365 q 422 305 418 311 q 432 292 425 299 q 467 276 451 276 q 513 253 483 276 q 535 226 529 238 q 540 190 540 215 q 519 121 540 151 l 499 90 l 293 88 l 86 85 l 58 111 q 45 127 50 121 q 37 142 40 133 q 33 159 33 150 q 32 183 32 168 q 37 226 32 214 q 60 253 42 238 q 102 276 79 268 q 172 288 125 283 l 200 289 l 197 431 q 186 579 196 569 q 146 567 179 586 q 112 551 124 553 q 78 557 100 550 q 28 588 42 567 q 15 631 17 603 q 19 679 13 660 q 106 762 25 693 q 207 839 188 831 z "},"2":{"ha":622,"x_min":13,"x_max":619,"o":"m 210 853 q 355 862 274 871 q 485 824 436 853 q 537 763 515 807 q 564 667 558 719 q 533 540 571 596 q 363 364 496 485 q 335 324 329 335 q 392 306 340 313 q 461 315 440 301 q 519 331 483 331 q 608 247 599 331 q 535 128 619 160 q 296 128 451 96 q 229 138 249 138 q 192 132 210 139 q 92 106 128 106 q 29 132 56 106 q 15 156 18 144 q 17 193 13 167 q 78 332 25 264 q 278 533 131 400 q 341 594 325 575 q 357 629 357 614 q 344 665 357 656 q 299 675 331 675 q 252 666 268 675 q 218 628 236 657 q 167 579 201 601 q 130 560 140 563 q 89 567 119 558 q 37 597 53 576 q 21 654 21 617 q 49 731 21 689 q 121 808 76 774 q 210 853 165 842 z "},"3":{"ha":571,"x_min":14,"x_max":560,"o":"m 188 849 q 314 853 225 858 q 426 838 403 849 q 520 734 490 804 q 526 603 550 664 q 508 531 508 550 q 531 471 508 513 q 553 417 549 439 q 558 358 558 396 q 541 247 558 288 q 476 167 524 207 q 395 119 429 128 q 288 115 361 110 q 56 213 138 125 q 14 283 14 257 q 57 357 14 325 q 138 376 100 389 q 196 335 163 365 q 259 301 222 311 q 332 296 296 290 q 351 304 346 297 q 357 332 356 311 q 338 392 361 372 q 265 413 314 413 q 160 479 182 413 q 159 534 150 510 q 196 577 168 558 q 268 607 224 596 q 309 619 294 614 q 331 629 324 624 q 338 640 339 635 q 332 653 338 644 q 290 666 319 668 q 242 644 260 664 q 181 607 221 622 q 47 633 107 579 q 25 678 24 656 q 54 751 26 701 q 106 815 79 796 q 188 849 132 835 z "},"4":{"ha":735,"x_min":14,"x_max":722,"o":"m 353 849 q 393 865 388 864 q 426 853 399 865 q 476 749 493 825 q 488 710 463 685 q 539 721 499 721 q 576 715 563 721 q 604 694 589 710 q 627 662 624 676 q 631 599 631 647 l 631 531 l 663 518 q 722 432 722 492 q 712 385 722 401 q 669 344 701 368 l 633 321 l 629 240 q 623 167 628 183 q 600 132 618 150 q 492 107 553 82 q 440 152 454 122 q 422 257 426 182 l 418 344 l 278 344 q 67 367 119 346 q 14 450 14 388 q 36 509 14 479 q 168 653 58 539 q 285 788 256 743 q 353 849 317 832 m 428 619 q 424 639 435 639 q 383 603 415 639 q 350 557 350 567 q 386 549 350 549 q 411 550 404 549 q 420 556 418 551 q 422 574 422 561 q 428 619 422 596 z "},"5":{"ha":561,"x_min":14,"x_max":557,"o":"m 188 857 q 358 859 272 863 q 471 846 444 856 q 513 772 513 829 q 439 681 513 711 q 313 672 400 665 q 235 674 250 676 q 214 658 221 672 q 210 631 204 639 q 290 621 214 621 q 490 560 425 621 q 547 383 556 500 q 447 176 539 249 q 349 117 397 135 q 191 105 276 90 q 47 168 106 119 q 20 197 26 186 q 14 232 14 208 q 40 294 14 268 q 94 326 69 324 q 160 308 119 329 q 291 288 229 272 q 353 360 353 304 q 338 417 353 392 q 315 438 325 435 q 258 436 304 440 q 169 418 200 432 q 80 408 125 394 q 28 460 35 421 q 21 708 17 528 l 24 803 l 60 826 q 106 847 82 842 q 188 857 129 853 z "},"6":{"ha":525,"x_min":13,"x_max":514,"o":"m 310 847 q 417 845 371 858 q 482 801 464 832 q 482 728 500 769 q 378 667 457 667 q 344 665 358 667 q 319 660 331 664 q 299 651 308 657 q 282 636 290 644 q 265 614 274 628 q 240 574 240 581 q 307 564 240 568 q 374 554 349 560 q 417 540 399 549 q 453 514 435 531 q 513 353 514 457 q 449 186 511 250 q 310 111 390 125 q 158 136 229 97 q 69 222 101 168 q 21 360 36 275 q 14 433 14 408 q 24 504 14 457 q 142 744 56 654 q 310 847 228 833 m 314 376 q 283 385 294 385 q 253 365 267 385 q 242 324 239 344 q 246 308 243 314 q 255 300 249 303 q 274 296 261 297 q 325 326 308 293 q 314 376 342 360 z "},"7":{"ha":643,"x_min":14,"x_max":632,"o":"m 99 829 q 171 844 129 842 q 353 847 213 847 q 585 835 558 849 q 617 803 604 825 q 631 758 631 781 q 552 585 631 744 q 422 335 474 425 q 343 190 378 258 q 312 138 325 156 q 284 110 299 119 q 249 99 269 101 q 188 108 218 93 q 144 150 158 122 q 137 201 132 175 q 167 263 142 226 q 269 451 190 296 q 351 625 349 606 q 338 640 354 638 q 218 643 318 643 q 103 647 135 643 q 54 660 71 650 q 22 687 29 672 q 14 733 14 701 q 99 829 14 796 z "},"8":{"ha":618,"x_min":14,"x_max":607,"o":"m 249 864 q 338 883 304 882 q 419 865 371 883 q 543 749 510 833 q 531 586 576 665 l 513 556 l 546 522 q 581 480 568 501 q 599 432 593 458 q 606 371 606 406 q 587 259 606 306 q 521 163 568 213 q 436 94 474 113 q 329 71 399 76 q 262 71 286 68 q 190 89 238 74 q 56 178 99 121 q 14 332 14 236 q 19 399 14 376 q 42 457 24 421 q 63 507 60 493 q 60 536 67 521 q 50 610 49 560 q 64 694 51 660 q 249 864 107 815 m 358 685 q 313 703 347 706 q 260 679 278 701 q 240 639 240 656 q 259 608 240 622 q 301 593 278 593 q 360 622 342 593 q 358 685 378 650 m 364 407 q 290 422 326 425 q 231 394 254 418 q 233 290 175 339 q 249 279 242 283 q 265 272 256 275 q 285 268 275 269 q 313 267 296 267 q 358 271 344 267 q 385 288 372 275 q 410 355 415 322 q 364 407 406 388 z "},"9":{"ha":538,"x_min":14,"x_max":531,"o":"m 163 850 q 351 858 254 897 q 493 719 449 819 q 522 590 515 669 q 517 450 529 510 q 438 273 497 357 q 303 143 379 189 q 252 122 272 126 q 178 117 232 117 q 105 123 132 117 q 63 144 78 129 q 40 183 47 158 q 63 268 26 233 q 169 303 100 303 q 220 308 208 303 q 257 339 232 314 q 285 377 279 365 q 288 400 292 389 q 224 408 285 404 q 68 466 122 414 q 14 613 14 518 q 163 850 14 776 m 296 654 q 271 683 294 681 q 216 656 236 686 q 218 604 196 626 q 270 601 240 582 q 296 654 300 619 z "}," ":{"ha":583,"x_min":0,"x_max":0,"o":""},"!":{"ha":272,"x_min":6,"x_max":283,"o":"m 60 800 q 119 829 92 829 q 178 801 147 829 l 210 775 l 204 614 q 197 485 201 526 q 184 424 193 443 q 157 394 175 404 q 103 385 135 382 q 53 406 71 389 l 29 426 l 29 771 l 60 800 m 153 613 q 157 622 157 613 q 147 631 157 631 q 147 615 135 631 q 153 613 151 613 m 107 306 q 198 299 158 318 q 254 236 238 281 q 176 104 283 150 q 59 103 113 75 q 15 188 6 131 q 49 263 22 228 q 107 306 76 299 z "},"\"":{"ha":594,"x_min":1,"x_max":588,"o":"m 94 892 q 190 888 138 903 q 233 853 204 885 q 268 781 265 821 q 265 730 272 753 q 226 643 257 707 q 158 528 181 554 q 103 503 136 503 q 47 523 67 503 q 26 579 26 543 q 40 639 26 615 q 69 698 68 688 q 51 725 71 708 q 18 824 1 765 q 44 868 26 853 q 94 892 61 883 m 397 871 q 467 893 429 893 q 492 890 482 893 q 513 881 503 888 q 536 860 522 874 q 578 790 569 825 q 574 701 586 754 q 503 559 554 615 q 394 503 453 503 q 357 508 367 503 q 335 533 347 513 q 322 583 318 560 q 354 636 326 606 q 378 685 375 661 q 367 719 382 708 q 351 794 340 743 q 397 871 361 846 z "},"#":{"ha":13,"x_min":0,"x_max":0,"o":""},"$":{"ha":13,"x_min":0,"x_max":0,"o":""},"%":{"ha":661,"x_min":-4,"x_max":678,"o":"m 136 863 q 202 868 164 869 q 260 856 240 867 q 294 807 282 844 q 303 717 306 769 q 291 647 300 675 q 265 600 282 618 q 224 574 249 582 q 165 567 200 567 q 85 584 117 567 q 35 639 53 601 q 26 776 -3 711 q 136 863 56 840 m 197 764 q 142 769 171 785 q 114 718 114 753 q 131 683 114 700 q 168 667 149 667 q 203 690 185 667 q 217 730 219 710 q 197 764 215 750 m 463 857 q 510 859 488 865 q 550 831 533 853 q 567 783 567 810 q 541 694 567 754 q 483 586 515 633 q 294 275 396 458 q 194 122 228 157 q 159 90 169 96 q 124 88 149 85 q 69 118 92 93 q 88 242 29 165 q 158 354 118 281 q 267 538 193 417 q 404 785 403 756 q 424 825 404 800 q 463 857 444 850 m 490 360 q 594 343 554 376 q 632 171 678 272 q 569 113 613 129 q 481 109 526 96 q 413 161 436 122 q 406 279 381 213 q 490 360 432 346 m 558 267 q 522 285 540 285 q 503 279 513 285 q 485 266 493 274 q 472 248 478 258 q 467 228 467 238 q 504 179 467 192 q 561 196 542 167 q 558 267 589 236 z "},"&":{"ha":13,"x_min":0,"x_max":0,"o":""},"(":{"ha":319,"x_min":8,"x_max":311,"o":"m 174 853 q 219 883 203 879 q 263 871 235 886 q 307 819 304 850 q 276 735 310 789 q 235 632 247 686 q 213 563 225 583 q 190 439 201 544 q 186 330 183 378 q 203 244 189 282 q 244 164 217 207 q 281 90 281 111 q 273 62 281 76 q 252 35 265 47 q 221 17 239 24 q 191 8 200 8 q 164 17 182 8 q 103 72 138 31 q 47 158 69 113 q 16 299 24 208 q 22 465 8 390 q 174 853 78 767 z "},")":{"ha":318,"x_min":6,"x_max":307,"o":"m 104 901 q 134 909 128 910 q 165 894 140 908 q 208 854 183 883 q 256 790 233 825 q 288 728 278 756 q 306 568 304 686 q 301 453 306 492 q 275 331 296 414 q 180 92 233 167 q 69 40 126 17 q 17 92 28 57 q 31 158 6 126 q 88 288 71 211 q 110 353 100 339 q 132 475 119 371 q 131 630 142 572 q 78 751 119 688 q 42 829 42 806 q 60 869 42 849 q 104 901 78 890 z "},"*":{"ha":13,"x_min":0,"x_max":0,"o":""},"+":{"ha":542,"x_min":14,"x_max":544,"o":"m 228 721 q 257 729 246 729 q 296 716 274 731 q 326 685 318 701 q 347 617 336 668 q 361 525 357 567 l 364 499 l 424 501 q 478 501 467 504 q 507 475 490 497 q 522 392 543 432 q 433 344 500 353 q 372 324 382 338 q 358 243 363 311 q 344 153 354 174 q 299 122 333 132 q 241 124 272 115 q 199 150 210 132 q 191 195 196 154 q 181 276 186 236 q 172 321 176 317 q 110 344 164 329 q 35 378 56 358 q 14 435 14 399 q 35 492 14 478 q 122 507 57 507 l 190 507 l 186 549 q 187 669 178 631 q 228 721 196 708 z "},",":{"ha":313,"x_min":7,"x_max":308,"o":"m 100 388 q 176 385 122 396 q 249 358 231 375 q 299 247 290 322 q 276 108 307 172 q 217 28 258 69 q 149 -19 176 -12 q 104 -15 126 -25 q 68 17 82 -6 q 89 113 42 57 q 105 138 103 131 q 100 150 107 144 q 76 158 86 158 q 41 188 63 158 q 15 243 19 218 q 36 326 8 279 q 100 388 64 374 z "},"-":{"ha":476,"x_min":0,"x_max":471,"o":"m 44 460 l 68 485 l 246 485 q 401 482 372 485 q 443 465 429 479 q 463 391 469 440 q 425 319 457 342 q 249 313 414 313 q 109 316 150 313 q 49 330 68 319 q 21 365 31 340 q 44 460 1 413 z "},".":{"ha":264,"x_min":3,"x_max":257,"o":"m 85 328 q 178 341 132 360 q 243 261 224 322 q 246 195 257 219 q 189 140 235 171 q 147 117 161 121 q 106 115 132 113 q 28 159 51 121 q 19 246 4 197 q 85 328 35 294 z "},"/":{"ha":479,"x_min":13,"x_max":508,"o":"m 335 890 q 394 902 356 904 q 449 885 432 900 q 363 494 507 825 q 281 297 311 374 q 215 144 235 183 q 167 81 194 106 q 146 64 156 69 q 125 56 136 58 q 97 54 114 54 q 60 59 71 54 q 35 81 49 64 q 14 130 15 106 q 31 190 13 154 q 71 285 47 224 q 144 467 82 314 q 226 675 207 621 q 287 816 257 756 q 335 890 317 876 z "},":":{"ha":286,"x_min":3,"x_max":275,"o":"m 14 596 q 57 703 14 654 q 161 757 100 753 q 219 727 189 757 q 263 657 250 697 q 273 615 272 626 q 264 585 274 603 q 240 553 256 569 q 205 524 224 538 q 167 503 186 511 q 133 494 147 494 q 51 526 89 494 q 14 596 14 557 m 108 372 q 172 382 136 385 q 211 368 194 379 q 240 336 228 357 q 264 282 253 315 q 274 240 274 251 q 261 210 274 229 q 203 151 244 179 q 133 122 161 122 q 67 141 101 122 q 24 185 33 160 q 31 290 4 231 q 108 372 58 350 z "},";":{"ha":314,"x_min":3,"x_max":335,"o":"m 143 742 q 194 745 176 749 q 232 724 211 742 q 281 638 268 692 q 272 554 294 583 q 238 524 261 540 q 190 496 215 507 q 151 485 165 485 q 59 522 92 485 q 35 617 26 558 q 48 659 39 643 q 82 699 57 675 q 143 742 122 739 m 113 360 q 199 349 153 367 q 264 304 246 332 q 275 82 335 200 q 178 -34 232 -3 q 82 -32 125 -65 q 58 18 57 -12 q 86 81 58 49 l 114 111 l 82 125 q 22 192 40 143 q 25 282 4 240 q 65 333 39 308 q 113 360 92 357 z "},"<":{"ha":13,"x_min":0,"x_max":0,"o":""},"=":{"ha":425,"x_min":10,"x_max":418,"o":"m 204 667 q 333 674 328 672 q 369 649 340 675 q 388 631 382 639 q 397 613 394 622 q 399 590 399 604 q 346 510 397 538 q 204 501 325 499 q 72 513 104 503 q 29 560 40 524 q 32 610 21 582 q 64 651 43 639 q 204 667 81 661 m 168 457 q 344 465 318 465 q 386 449 371 464 q 412 379 417 418 q 368 314 407 340 q 322 297 346 299 q 199 296 297 294 q 77 302 100 299 q 38 321 54 306 q 15 388 11 346 q 47 444 18 431 q 168 457 63 453 z "},">":{"ha":13,"x_min":0,"x_max":0,"o":""},"?":{"ha":468,"x_min":14,"x_max":472,"o":"m 188 857 q 326 860 274 869 q 415 817 378 851 q 442 785 435 800 q 454 742 450 769 q 285 522 472 610 q 234 494 246 504 q 222 471 222 485 q 192 416 222 447 q 135 379 161 385 q 106 381 117 376 q 76 403 94 385 q 52 435 56 424 q 53 492 49 447 q 83 589 58 553 q 157 642 107 625 q 264 693 264 679 q 215 702 256 706 q 146 685 174 699 q 89 667 110 667 q 40 694 65 667 q 14 746 14 721 q 64 814 14 782 q 188 857 114 846 m 114 311 q 168 317 138 322 q 234 267 211 311 q 247 173 257 222 q 197 106 238 124 q 133 97 169 94 q 74 115 97 100 q 36 165 49 132 q 32 225 24 197 q 64 276 40 250 q 114 311 88 301 z "},"@":{"ha":13,"x_min":0,"x_max":0,"o":""},"A":{"ha":843,"x_min":8,"x_max":832,"o":"m 376 836 q 438 856 414 856 q 504 835 463 856 q 592 751 547 811 q 658 625 638 690 q 732 479 668 590 q 809 324 788 383 q 831 217 831 265 q 746 117 831 117 q 679 142 703 117 q 633 236 656 167 l 608 308 q 264 306 436 307 l 229 247 q 165 156 190 183 q 133 128 144 133 q 93 122 121 122 q 56 126 68 122 q 33 146 44 131 q 15 213 8 175 q 67 331 22 251 q 153 488 78 351 q 274 706 228 625 q 332 799 314 776 q 376 836 350 822 m 467 544 q 429 585 440 585 q 394 544 419 583 q 375 499 369 504 q 431 494 379 494 q 489 499 483 494 q 467 544 494 507 z "},"B":{"ha":629,"x_min":13,"x_max":635,"o":"m 17 792 q 35 826 21 813 q 65 847 49 840 q 112 858 81 854 q 163 863 143 863 q 225 864 183 864 q 247 864 240 864 q 434 841 371 865 q 525 754 497 817 q 547 675 544 714 q 535 581 549 636 l 521 528 l 556 489 q 611 300 635 404 q 510 158 590 199 q 249 118 431 118 q 101 125 136 117 q 35 167 65 133 q 19 226 22 182 q 14 475 17 269 q 17 792 13 765 m 349 685 q 276 694 331 694 q 208 682 222 693 q 196 635 192 671 l 199 599 l 261 600 q 344 617 324 603 q 366 651 364 629 q 349 685 368 674 m 342 413 q 253 420 301 419 q 200 415 206 421 q 194 357 194 410 q 213 294 194 306 q 310 289 231 283 q 409 305 388 296 q 431 338 431 314 q 419 371 431 356 q 388 397 408 386 q 342 413 368 408 z "},"C":{"ha":611,"x_min":3,"x_max":607,"o":"m 357 843 q 542 840 475 879 q 578 792 568 825 q 572 732 588 758 q 517 686 560 706 q 435 667 475 667 q 228 490 297 667 q 217 335 188 385 q 351 285 247 285 q 395 291 379 285 q 436 315 411 297 q 501 353 475 346 q 575 328 544 363 q 597 246 606 293 q 499 145 588 192 q 324 101 411 99 q 194 124 256 103 q 97 176 133 144 q 20 317 38 232 q 33 500 3 403 q 77 617 57 581 q 146 706 97 653 q 247 795 206 768 q 357 843 289 822 z "},"D":{"ha":653,"x_min":13,"x_max":647,"o":"m 125 843 q 335 844 224 863 q 517 779 446 826 q 610 654 575 742 q 640 481 646 567 q 601 323 633 400 q 525 210 568 246 q 429 150 490 181 q 335 114 368 119 q 171 113 286 106 q 90 118 114 115 q 53 125 65 121 q 32 139 42 129 q 15 167 18 153 q 17 233 13 182 q 18 457 18 283 q 21 683 18 631 q 28 760 25 735 q 44 803 32 785 q 73 829 56 822 q 125 843 90 836 m 375 640 q 284 662 350 654 q 213 660 218 669 q 213 481 207 649 q 231 303 218 313 q 303 296 243 292 q 358 304 344 299 q 389 329 372 310 q 428 403 413 354 q 443 499 443 451 q 423 583 443 542 q 375 640 403 625 z "},"E":{"ha":633,"x_min":13,"x_max":621,"o":"m 335 858 q 497 868 428 881 q 594 808 565 856 q 610 755 611 779 q 589 700 610 731 q 490 661 553 647 q 401 668 449 671 q 319 651 353 665 q 256 603 283 635 q 228 542 229 571 q 227 528 228 533 q 231 520 226 524 q 241 516 236 517 q 260 514 246 515 q 371 525 290 511 q 490 524 458 540 q 521 450 521 508 q 515 417 521 429 q 493 390 510 404 q 433 359 468 369 q 318 338 397 349 q 240 313 242 328 q 285 278 240 300 q 456 286 374 233 q 535 318 506 315 q 592 299 564 321 q 615 272 610 283 q 621 239 621 261 q 590 169 621 199 q 488 108 558 139 q 409 79 431 83 q 335 79 388 75 q 115 163 192 89 q 58 242 76 201 q 25 353 39 282 q 14 430 14 407 q 24 504 14 453 q 335 858 81 796 z "},"F":{"ha":740,"x_min":3,"x_max":740,"o":"m 419 882 q 646 869 549 928 q 720 792 701 835 q 715 714 739 749 q 671 678 706 699 q 622 657 636 657 q 571 685 614 657 q 457 709 506 729 q 397 614 408 689 q 397 557 392 567 q 488 553 404 546 q 592 553 572 560 q 624 522 610 547 q 639 471 639 496 q 625 425 639 443 q 582 397 611 407 q 503 379 553 386 q 490 378 499 379 q 453 374 464 375 q 430 368 443 374 q 414 359 417 363 q 407 340 411 356 q 402 313 403 325 q 401 269 401 300 q 400 256 401 261 q 394 166 399 189 q 376 125 390 143 q 353 100 364 106 q 322 94 343 94 q 226 143 263 94 q 210 181 214 158 q 207 265 207 203 l 206 363 l 139 368 q 56 388 83 374 q 18 433 29 403 q 39 522 3 481 q 65 541 49 536 q 128 549 81 546 l 199 553 l 204 599 q 250 738 213 665 q 331 840 288 810 q 419 882 354 857 z "},"G":{"ha":706,"x_min":3,"x_max":696,"o":"m 463 824 q 543 826 521 829 q 596 806 565 824 q 642 769 631 786 q 653 719 653 751 q 635 663 653 696 q 597 619 617 631 q 494 617 581 611 q 369 610 419 622 q 274 567 318 599 q 201 442 208 519 q 250 313 193 364 q 281 294 265 297 q 343 290 296 290 q 438 303 396 292 q 481 329 481 315 q 443 339 481 339 q 321 379 363 340 q 304 468 279 418 q 347 510 321 500 q 436 522 372 521 q 563 529 508 522 q 630 529 607 536 q 668 499 653 522 q 692 419 689 467 q 683 324 694 371 q 644 238 671 278 q 585 182 618 197 q 553 165 579 178 q 517 149 528 153 q 300 110 438 110 q 189 125 232 110 q 101 181 146 140 q 21 335 38 238 q 33 529 4 432 q 126 690 63 626 q 265 778 176 743 q 463 824 354 813 z "},"H":{"ha":669,"x_min":11,"x_max":658,"o":"m 58 829 q 171 821 124 869 q 199 772 193 800 q 215 636 206 744 q 224 575 219 588 q 243 557 228 563 q 351 548 267 547 q 442 558 436 549 q 454 665 447 569 q 472 782 461 761 q 494 809 478 796 q 530 831 511 822 q 561 839 549 839 q 610 824 583 839 q 646 793 636 810 q 656 483 654 778 q 646 171 657 215 q 606 124 638 138 q 590 118 600 122 q 517 113 554 103 q 467 152 479 122 q 454 261 454 182 l 454 347 l 413 353 q 296 350 368 357 l 224 344 l 226 263 q 219 156 228 178 q 181 119 211 133 q 111 104 150 104 q 56 126 81 104 q 24 185 31 149 q 15 503 17 225 q 19 796 13 781 q 58 829 29 813 z "},"I":{"ha":232,"x_min":8,"x_max":222,"o":"m 74 826 q 165 828 129 846 q 210 757 200 810 q 219 475 218 717 q 214 188 221 233 q 171 111 207 129 q 78 117 135 93 q 54 130 63 124 q 38 149 46 136 q 27 183 29 163 q 22 238 25 203 q 19 322 18 274 q 21 442 21 371 q 15 721 22 692 q 26 785 8 754 q 74 826 43 817 z "},"J":{"ha":581,"x_min":13,"x_max":569,"o":"m 425 839 q 503 835 464 856 q 556 772 542 815 q 568 517 565 742 q 568 365 569 421 q 564 287 567 310 q 553 240 561 264 q 466 123 528 167 q 326 76 404 79 q 164 110 249 74 q 83 167 111 135 q 33 263 56 199 q 14 343 13 324 q 43 390 15 363 q 75 415 61 410 q 111 421 89 421 q 174 403 150 421 q 217 342 199 385 q 256 289 235 303 q 315 278 278 275 q 342 288 333 279 q 357 329 351 296 q 364 413 363 363 q 364 564 365 463 l 363 785 l 385 808 q 425 839 408 832 z "},"K":{"ha":711,"x_min":14,"x_max":699,"o":"m 33 783 q 80 817 49 804 q 143 825 111 831 q 214 785 194 818 q 242 656 233 751 q 254 585 247 585 q 328 641 264 585 q 408 721 392 697 q 470 792 454 779 q 518 808 486 806 q 559 809 547 813 q 589 786 571 806 q 476 525 674 700 q 417 467 417 472 q 518 389 417 460 q 660 279 628 311 q 685 252 678 263 q 696 231 693 242 q 699 197 699 219 q 698 172 699 181 q 694 155 697 163 q 685 142 690 147 q 671 128 681 136 q 590 96 626 90 q 485 156 553 101 q 390 228 450 185 q 293 303 331 272 q 230 335 243 343 q 217 253 217 326 q 196 135 217 165 q 114 104 175 104 q 86 106 97 104 q 65 114 75 108 q 43 129 56 119 l 14 156 l 15 457 q 19 719 17 671 q 33 783 22 767 z "},"L":{"ha":610,"x_min":14,"x_max":599,"o":"m 72 847 q 123 856 96 857 q 167 843 150 854 q 204 774 197 821 q 213 549 211 726 q 224 317 214 326 q 386 308 233 308 l 539 308 l 567 282 q 597 217 594 256 q 574 153 599 179 q 528 127 556 136 q 451 113 501 118 q 306 106 401 108 q 111 110 158 103 q 36 151 64 118 l 14 178 l 14 483 q 17 754 14 711 q 33 815 19 797 q 72 847 54 842 z "},"M":{"ha":904,"x_min":11,"x_max":907,"o":"m 549 819 q 669 822 600 853 q 697 809 690 813 q 712 791 703 806 q 725 763 721 776 q 740 708 729 750 q 793 563 758 643 q 883 278 860 415 q 871 118 907 142 q 803 104 851 104 q 756 108 772 104 q 725 132 740 111 q 699 184 710 153 q 669 281 688 215 q 649 348 660 317 q 631 397 639 379 q 622 413 624 414 q 610 389 619 411 q 590 334 601 367 q 567 265 579 301 q 546 197 556 229 q 532 149 536 165 q 476 99 524 113 q 378 107 428 86 q 358 119 365 113 q 345 134 350 125 q 336 160 340 143 q 307 248 331 181 q 278 338 283 315 q 264 365 272 368 q 251 324 256 360 q 237 258 249 304 q 213 171 225 211 q 197 122 201 131 q 151 104 192 114 q 110 99 124 97 q 74 113 97 100 q 22 161 38 132 q 15 210 13 185 q 46 350 18 236 q 106 585 79 492 q 138 719 126 658 q 154 772 146 758 q 185 800 163 786 q 263 828 218 824 q 337 806 311 832 q 390 701 363 781 q 424 582 418 614 q 440 553 429 550 q 457 590 450 556 q 499 759 483 721 q 549 819 514 797 z "},"N":{"ha":703,"x_min":14,"x_max":696,"o":"m 33 808 q 79 849 50 831 q 136 861 108 868 q 186 833 158 856 q 235 782 214 811 q 379 592 282 718 q 483 461 476 465 q 489 475 488 458 l 486 536 q 481 699 478 626 q 494 794 483 771 q 585 854 521 843 q 617 853 606 857 q 647 829 628 849 l 678 799 l 683 613 q 679 181 696 254 q 625 113 667 121 q 581 110 610 110 q 503 125 528 111 q 461 157 486 133 q 408 213 436 181 q 358 276 381 244 q 301 358 331 318 q 251 424 271 399 q 228 449 231 449 q 222 304 222 449 q 219 176 222 200 q 201 138 217 153 q 158 108 181 114 q 99 114 133 103 q 46 144 64 125 q 26 185 31 161 q 19 319 22 210 q 14 625 14 486 q 15 734 14 704 q 20 779 17 764 q 33 808 24 794 z "},"O":{"ha":743,"x_min":1,"x_max":732,"o":"m 257 835 q 356 857 310 857 q 477 837 407 857 q 589 790 547 817 q 658 731 632 763 q 708 643 683 700 q 724 602 721 617 q 729 561 728 588 q 728 494 731 535 q 690 303 724 379 q 586 174 656 226 q 474 113 529 131 q 343 94 419 94 q 219 104 257 94 q 113 174 160 119 q 36 318 65 229 q 20 521 3 417 q 101 714 38 625 q 257 835 161 796 m 428 649 q 239 576 304 706 q 216 435 207 511 q 272 308 225 360 q 304 282 292 288 q 342 276 317 276 q 420 295 372 276 q 482 332 468 314 q 511 408 499 353 q 521 507 524 464 q 428 649 514 610 z "},"P":{"ha":633,"x_min":13,"x_max":629,"o":"m 133 849 q 346 849 201 861 q 553 769 489 838 q 618 631 607 710 q 590 481 629 553 q 304 317 511 329 q 225 308 229 311 q 217 214 218 300 q 210 160 215 175 q 183 125 204 146 q 151 100 165 106 q 113 94 138 94 q 24 146 43 94 q 14 468 14 169 q 16 719 14 664 q 28 789 18 774 q 69 825 40 808 q 133 849 99 842 m 394 635 q 335 661 376 654 q 253 658 293 668 q 213 636 219 649 q 207 575 206 624 l 210 517 l 290 514 q 335 513 319 514 q 361 515 350 511 q 377 522 372 518 q 392 536 382 525 q 413 585 413 558 q 394 635 414 611 z "},"Q":{"ha":711,"x_min":-40,"x_max":700,"o":"m 299 822 q 406 836 336 839 q 459 829 435 835 q 508 813 483 824 q 557 788 533 803 q 610 750 581 772 q 679 663 660 710 q 699 535 699 615 q 622 264 697 389 l 585 203 l 603 171 q 629 100 625 135 q 617 49 633 65 q 522 4 576 4 q 500 8 510 4 q 479 20 490 11 q 451 47 468 29 l 410 90 l 322 88 q 179 99 231 83 q 86 158 128 114 q 54 531 -40 286 q 156 713 99 644 q 299 822 214 782 m 415 642 q 376 653 389 647 q 297 601 344 665 q 222 449 249 538 q 208 385 210 404 q 213 342 207 367 q 228 308 219 318 q 253 289 236 297 q 288 284 279 279 q 310 321 297 289 q 336 359 319 344 q 376 379 353 374 q 428 382 400 385 l 467 375 l 482 422 q 499 522 497 467 q 498 560 500 547 q 490 581 496 572 q 469 606 485 590 q 415 642 439 638 z "},"R":{"ha":639,"x_min":11,"x_max":638,"o":"m 160 865 q 414 853 314 882 q 452 836 433 847 q 487 810 471 825 q 517 777 503 796 q 543 736 532 758 q 563 688 554 714 q 576 636 571 663 q 574 580 581 611 q 553 518 568 549 q 517 465 538 488 q 481 421 481 428 q 526 363 481 415 q 619 225 603 274 q 603 143 636 176 q 417 158 506 46 q 311 282 381 206 q 236 358 242 358 q 228 304 231 358 q 219 191 225 250 q 204 122 214 132 q 143 106 192 110 q 71 111 94 103 q 27 176 35 125 q 15 471 19 228 q 14 665 15 594 q 18 773 13 735 q 31 824 24 811 q 56 846 39 838 q 160 865 76 857 m 360 643 q 311 662 350 657 q 244 660 272 667 q 221 638 225 653 q 225 592 217 624 q 238 566 231 569 q 282 565 244 563 q 362 590 340 568 q 360 643 383 611 z "},"S":{"ha":632,"x_min":14,"x_max":625,"o":"m 253 839 q 358 844 293 847 q 424 838 400 843 q 476 817 447 832 q 544 746 531 786 q 532 660 558 706 q 482 624 514 632 q 417 633 450 617 q 308 647 375 653 q 240 615 240 640 q 259 599 240 604 q 342 589 278 594 q 479 566 440 582 q 558 501 518 550 q 611 413 597 451 q 618 326 625 375 q 573 208 608 251 q 458 129 538 164 q 349 91 390 97 q 254 99 307 85 q 138 133 171 119 q 65 175 104 146 q 36 197 44 190 q 22 213 28 204 q 15 230 15 222 q 14 254 14 238 q 24 311 14 292 q 60 344 33 331 q 176 331 115 374 q 302 283 229 293 q 407 301 375 274 q 422 348 419 313 q 413 390 425 383 q 314 403 400 397 q 230 414 258 407 q 163 440 201 421 q 106 475 124 460 q 67 525 89 490 q 32 614 32 579 q 98 753 32 686 q 253 839 164 821 z "},"T":{"ha":743,"x_min":14,"x_max":732,"o":"m 82 824 q 345 839 118 838 q 638 828 572 840 q 710 798 689 818 q 731 739 731 778 q 558 644 731 646 l 482 643 l 475 585 q 464 363 468 522 q 453 168 458 200 q 397 99 444 115 q 307 117 349 82 q 268 199 275 143 q 269 426 261 256 q 269 632 278 625 q 178 640 261 640 q 51 665 88 642 q 14 742 14 688 q 82 824 14 800 z "},"U":{"ha":656,"x_min":13,"x_max":643,"o":"m 75 843 q 135 856 101 857 q 189 838 168 854 q 225 767 218 815 q 222 589 232 719 q 215 371 211 443 l 218 308 l 260 306 q 351 317 297 303 q 422 349 404 332 q 435 394 433 360 q 433 569 438 428 l 428 775 l 464 811 q 533 850 501 849 q 600 817 565 851 l 631 786 l 631 546 q 636 238 631 313 l 643 168 l 610 135 q 576 110 589 115 q 538 104 563 104 q 469 126 496 104 l 443 149 l 392 131 q 253 107 343 114 q 129 111 163 100 q 68 146 97 122 q 25 197 39 169 q 14 268 15 217 q 17 501 13 319 q 31 775 22 726 q 75 843 39 824 z "},"V":{"ha":728,"x_min":10,"x_max":725,"o":"m 49 831 q 63 844 56 839 q 77 851 69 849 q 93 856 85 854 q 114 857 101 857 q 147 855 135 857 q 174 841 160 853 q 199 815 189 829 q 226 765 210 800 q 260 692 243 731 q 303 585 276 653 q 382 431 365 431 q 419 500 389 431 q 476 647 449 569 q 548 797 513 751 q 626 842 583 843 q 688 813 658 840 q 710 719 725 775 q 585 424 696 664 q 422 140 475 181 q 369 123 400 122 q 310 143 339 124 q 263 206 292 156 q 161 413 235 257 q 25 708 44 653 q 15 777 10 750 q 49 831 21 804 z "},"W":{"ha":919,"x_min":8,"x_max":910,"o":"m 47 822 q 108 848 71 844 q 171 833 146 851 q 202 794 185 824 q 233 728 219 765 q 254 658 247 690 q 292 549 276 549 q 300 560 300 549 q 317 683 300 567 q 330 760 325 736 q 340 796 335 783 q 357 818 346 808 q 406 844 382 839 q 465 838 431 849 q 503 816 492 829 q 540 753 515 803 q 606 613 585 658 q 643 542 635 544 q 651 546 647 540 q 660 567 656 551 q 671 609 665 583 q 685 675 676 635 q 733 802 704 765 q 813 839 761 839 q 850 833 838 839 q 879 807 863 828 q 906 758 903 781 q 894 700 910 735 q 881 644 881 665 q 835 469 881 621 q 771 247 789 319 q 621 128 732 72 q 588 154 601 138 q 554 208 574 171 q 507 317 521 274 q 478 381 493 360 l 464 399 l 457 381 q 431 317 456 375 q 392 206 410 271 q 353 131 374 150 q 292 113 333 113 q 225 139 251 113 q 174 232 199 165 q 88 494 156 279 q 15 742 21 697 q 47 822 10 788 z "},"X":{"ha":714,"x_min":14,"x_max":707,"o":"m 154 850 q 236 852 204 872 q 322 743 268 832 q 381 658 369 667 q 406 667 388 651 q 472 739 425 683 q 568 839 553 831 q 618 847 588 849 q 665 835 649 846 q 694 788 683 821 q 700 733 706 756 q 610 619 693 711 q 579 586 599 607 q 517 513 531 532 q 503 481 504 494 q 518 439 503 467 q 526 421 524 428 q 594 318 561 356 q 649 224 644 265 q 617 140 654 182 q 593 117 603 124 q 574 107 583 110 q 549 104 564 104 q 481 124 506 104 q 413 214 457 143 q 350 303 356 304 q 286 235 346 301 q 264 210 278 225 q 169 107 188 121 q 117 96 150 93 q 107 96 111 96 q 53 110 74 99 q 24 141 33 121 q 14 194 14 161 l 14 240 l 122 346 q 235 474 229 453 q 208 546 240 488 q 122 678 175 604 q 97 777 88 726 q 154 850 107 828 z "},"Y":{"ha":651,"x_min":3,"x_max":646,"o":"m 78 847 q 119 856 110 856 q 154 844 128 856 q 207 788 185 832 q 282 667 229 743 l 335 590 l 360 622 q 425 729 383 649 q 477 814 454 786 q 526 851 500 842 q 581 847 551 860 q 638 780 631 832 q 607 660 644 728 q 431 390 572 594 q 254 146 290 185 q 216 111 229 118 q 178 104 203 104 q 94 183 94 104 q 104 233 94 211 q 149 307 114 254 q 199 392 189 367 q 194 426 208 417 q 151 483 188 429 q 76 598 114 538 q 29 678 38 658 q 19 781 4 729 q 78 847 35 833 z "},"Z":{"ha":701,"x_min":8,"x_max":690,"o":"m 51 867 q 109 882 68 879 q 338 885 150 885 l 600 885 l 631 853 q 663 799 663 822 q 635 722 663 775 q 569 617 607 668 q 489 499 546 583 q 411 386 432 415 q 381 339 381 347 q 507 329 381 332 q 621 323 601 326 q 661 300 640 319 q 683 270 678 283 q 689 235 689 257 q 640 132 689 160 q 574 119 622 122 q 361 115 525 117 q 195 116 247 115 q 118 119 143 117 q 79 129 93 122 q 38 179 50 144 q 35 250 25 214 q 60 295 43 279 q 111 324 78 311 q 158 361 133 331 q 258 501 183 392 q 336 622 308 575 q 360 671 364 669 q 222 679 349 674 q 92 692 126 683 q 35 726 57 701 q 15 798 10 754 q 51 867 19 842 z "},"[":{"ha":13,"x_min":0,"x_max":0,"o":""},"]":{"ha":13,"x_min":0,"x_max":0,"o":""},"a":{"ha":13,"x_min":0,"x_max":0,"o":""},"b":{"ha":13,"x_min":0,"x_max":0,"o":""},"c":{"ha":13,"x_min":0,"x_max":0,"o":""},"d":{"ha":13,"x_min":0,"x_max":0,"o":""},"e":{"ha":13,"x_min":0,"x_max":0,"o":""},"f":{"ha":13,"x_min":0,"x_max":0,"o":""},"g":{"ha":13,"x_min":0,"x_max":0,"o":""},"h":{"ha":13,"x_min":0,"x_max":0,"o":""},"i":{"ha":13,"x_min":0,"x_max":0,"o":""},"j":{"ha":13,"x_min":0,"x_max":0,"o":""},"k":{"ha":13,"x_min":0,"x_max":0,"o":""},"l":{"ha":13,"x_min":0,"x_max":0,"o":""},"m":{"ha":13,"x_min":0,"x_max":0,"o":""},"n":{"ha":13,"x_min":0,"x_max":0,"o":""},"o":{"ha":13,"x_min":0,"x_max":0,"o":""},"p":{"ha":13,"x_min":0,"x_max":0,"o":""},"q":{"ha":13,"x_min":0,"x_max":0,"o":""},"r":{"ha":13,"x_min":0,"x_max":0,"o":""},"s":{"ha":13,"x_min":0,"x_max":0,"o":""},"t":{"ha":13,"x_min":0,"x_max":0,"o":""},"u":{"ha":13,"x_min":0,"x_max":0,"o":""},"v":{"ha":13,"x_min":0,"x_max":0,"o":""},"w":{"ha":13,"x_min":0,"x_max":0,"o":""},"x":{"ha":13,"x_min":0,"x_max":0,"o":""},"y":{"ha":13,"x_min":0,"x_max":0,"o":""},"z":{"ha":13,"x_min":0,"x_max":0,"o":""},"{":{"ha":13,"x_min":0,"x_max":0,"o":""},"|":{"ha":13,"x_min":0,"x_max":0,"o":""},"}":{"ha":13,"x_min":0,"x_max":0,"o":""},"~":{"ha":13,"x_min":0,"x_max":0,"o":""},"¢":{"ha":13,"x_min":0,"x_max":0,"o":""},"£":{"ha":13,"x_min":0,"x_max":0,"o":""},"§":{"ha":13,"x_min":0,"x_max":0,"o":""},"¿":{"ha":13,"x_min":0,"x_max":0,"o":""},"À":{"ha":13,"x_min":0,"x_max":0,"o":""},"Á":{"ha":13,"x_min":0,"x_max":0,"o":""},"Â":{"ha":13,"x_min":0,"x_max":0,"o":""},"Ä":{"ha":13,"x_min":0,"x_max":0,"o":""},"Ç":{"ha":13,"x_min":0,"x_max":0,"o":""},"È":{"ha":13,"x_min":0,"x_max":0,"o":""},"É":{"ha":13,"x_min":0,"x_max":0,"o":""},"Ê":{"ha":13,"x_min":0,"x_max":0,"o":""},"Ë":{"ha":13,"x_min":0,"x_max":0,"o":""},"Î":{"ha":13,"x_min":0,"x_max":0,"o":""},"Ï":{"ha":13,"x_min":0,"x_max":0,"o":""},"Ñ":{"ha":13,"x_min":0,"x_max":0,"o":""},"Ó":{"ha":13,"x_min":0,"x_max":0,"o":""},"Ô":{"ha":13,"x_min":0,"x_max":0,"o":""},"Ö":{"ha":13,"x_min":0,"x_max":0,"o":""},"Ù":{"ha":13,"x_min":0,"x_max":0,"o":""},"Ú":{"ha":13,"x_min":0,"x_max":0,"o":""},"Û":{"ha":13,"x_min":0,"x_max":0,"o":""},"Ü":{"ha":13,"x_min":0,"x_max":0,"o":""},"ß":{"ha":13,"x_min":0,"x_max":0,"o":""},"à":{"ha":13,"x_min":0,"x_max":0,"o":""},"á":{"ha":13,"x_min":0,"x_max":0,"o":""},"â":{"ha":13,"x_min":0,"x_max":0,"o":""},"ä":{"ha":13,"x_min":0,"x_max":0,"o":""},"ç":{"ha":13,"x_min":0,"x_max":0,"o":""},"è":{"ha":13,"x_min":0,"x_max":0,"o":""},"é":{"ha":13,"x_min":0,"x_max":0,"o":""},"ê":{"ha":13,"x_min":0,"x_max":0,"o":""},"ë":{"ha":13,"x_min":0,"x_max":0,"o":""},"î":{"ha":13,"x_min":0,"x_max":0,"o":""},"ï":{"ha":13,"x_min":0,"x_max":0,"o":""},"ó":{"ha":13,"x_min":0,"x_max":0,"o":""},"ô":{"ha":13,"x_min":0,"x_max":0,"o":""},"ö":{"ha":13,"x_min":0,"x_max":0,"o":""},"ù":{"ha":13,"x_min":0,"x_max":0,"o":""},"ú":{"ha":13,"x_min":0,"x_max":0,"o":""},"û":{"ha":13,"x_min":0,"x_max":0,"o":""},"ü":{"ha":13,"x_min":0,"x_max":0,"o":""},"ę":{"ha":13,"x_min":0,"x_max":0,"o":""},"’":{"ha":313,"x_min":-3,"x_max":300,"o":"m 94 892 q 219 888 169 914 q 273 819 246 874 q 300 722 300 764 q 266 610 300 674 q 190 513 232 546 q 124 477 149 479 q 72 501 99 475 q 47 552 46 528 q 75 608 47 576 l 104 642 l 82 657 q 18 807 -3 711 q 46 861 25 838 q 94 892 67 885 z "},"“":{"ha":594,"x_min":11,"x_max":590,"o":"m 82 332 q 159 334 117 340 q 219 311 201 328 q 267 217 267 267 q 221 79 267 168 q 160 -19 182 4 q 104 -42 138 -42 q 32 -5 49 -42 q 46 90 15 32 l 71 139 l 40 167 q 16 197 19 186 q 15 236 13 207 q 38 300 19 274 q 82 332 56 326 m 435 333 q 497 332 456 338 q 554 315 538 326 q 581 200 589 294 q 531 39 572 106 q 480 -22 500 -8 q 414 -39 460 -35 q 367 -40 379 -43 q 340 -25 354 -37 q 358 85 292 25 q 392 125 389 114 q 376 153 396 136 q 353 201 358 169 q 358 257 347 232 q 392 304 368 281 q 435 333 417 328 z "},"”":{"ha":594,"x_min":10,"x_max":583,"o":"m 132 890 q 206 899 161 903 q 263 879 250 896 q 238 775 297 831 q 203 735 207 747 q 219 707 200 724 q 244 635 250 681 q 200 551 239 589 q 168 531 182 535 q 118 528 154 526 q 40 545 60 529 q 15 615 21 561 q 25 724 10 665 q 69 829 40 783 q 132 890 99 875 m 440 886 q 495 902 461 903 q 546 885 529 901 q 570 836 569 861 q 551 771 571 811 l 525 722 l 556 693 q 580 663 576 674 q 579 619 583 653 q 550 546 574 565 q 465 526 526 526 q 409 530 424 526 q 378 549 394 533 q 328 643 329 594 q 374 782 328 692 q 440 886 421 871 z "},"•":{"ha":13,"x_min":0,"x_max":0,"o":""},"€":{"ha":13,"x_min":0,"x_max":0,"o":""}}}
